<svg xmlns="http://www.w3.org/2000/svg" width="1000" height="460" viewBox="0 0 1000 460">
<rect width="100%" height="100%" fill="white"/>
<text x="500.0" y="28" font-size="20" text-anchor="middle" font-weight="700" fill="#111827">日K收盘价差：SPI - CFD</text>
<text x="22" y="230.0" font-size="13" text-anchor="middle" fill="#374151" transform="rotate(-90 22 230.0)">点数</text>
<line x1="76" y1="54.0" x2="972" y2="54.0" stroke="#e5e7eb"/><text x="66" y="58.0" font-size="12" text-anchor="end" fill="#4b5563">190.8</text><line x1="76" y1="123.6" x2="972" y2="123.6" stroke="#e5e7eb"/><text x="66" y="127.6" font-size="12" text-anchor="end" fill="#4b5563">121.7</text><line x1="76" y1="193.2" x2="972" y2="193.2" stroke="#e5e7eb"/><text x="66" y="197.2" font-size="12" text-anchor="end" fill="#4b5563">52.7</text><line x1="76" y1="262.8" x2="972" y2="262.8" stroke="#e5e7eb"/><text x="66" y="266.8" font-size="12" text-anchor="end" fill="#4b5563">-16.4</text><line x1="76" y1="332.4" x2="972" y2="332.4" stroke="#e5e7eb"/><text x="66" y="336.4" font-size="12" text-anchor="end" fill="#4b5563">-85.4</text><line x1="76" y1="402.0" x2="972" y2="402.0" stroke="#e5e7eb"/><text x="66" y="406.0" font-size="12" text-anchor="end" fill="#4b5563">-154.5</text>
<line x1="76" y1="402" x2="972" y2="402" stroke="#9ca3af"/>
<line x1="76" y1="54" x2="76" y2="402" stroke="#9ca3af"/>
<path d="M76.0,209.6 L106.5,200.2 L116.7,236.6 L126.9,237.3 L137.1,232.4 L147.3,240.1 L177.8,230.6 L188.0,224.0 L198.2,234.5 L208.4,232.8 L218.5,222.2 L249.1,212.5 L259.3,186.3 L269.5,200.6 L279.6,238.5 L289.8,234.8 L330.5,242.1 L340.7,231.1 L350.9,275.6 L361.1,261.2 L391.6,320.9 L401.8,240.5 L412.0,248.5 L422.2,180.9 L432.4,269.3 L462.9,215.1 L473.1,257.7 L483.3,265.9 L493.5,246.4 L503.6,242.5 L534.2,275.9 L544.4,244.9 L554.5,275.6 L564.7,195.2 L574.9,212.6 L605.5,253.8 L615.6,256.4 L625.8,277.5 L636.0,240.9 L646.2,225.1 L676.7,180.1 L686.9,98.0 L697.1,259.5 L707.3,169.0 L717.5,78.0 L748.0,219.6 L758.2,225.9 L768.4,104.3 L778.5,247.0 L788.7,203.5 L819.3,225.7 L829.5,237.8 L839.6,109.6 L849.8,107.0 L860.0,189.7 L890.5,378.0 L900.7,210.8 L910.9,230.4 L921.1,158.7 L931.3,104.4 L961.8,270.7 L972.0,239.3" fill="none" stroke="#7c3aed" stroke-width="2"/>
<line x1="76" y1="436" x2="104" y2="436" stroke="#7c3aed" stroke-width="3"/><text x="112" y="440" font-size="13" fill="#111827">close diff</text>
</svg>