<svg xmlns="http://www.w3.org/2000/svg" width="1000" height="460" viewBox="0 0 1000 460">
<rect width="100%" height="100%" fill="white"/>
<text x="500.0" y="28" font-size="20" text-anchor="middle" font-weight="700" fill="#111827">SPI 连续合约 vs ASX200 CFD：日K收盘价</text>
<text x="22" y="230.0" font-size="13" text-anchor="middle" fill="#374151" transform="rotate(-90 22 230.0)">价格</text>
<line x1="76" y1="54.0" x2="972" y2="54.0" stroke="#e5e7eb"/><text x="66" y="58.0" font-size="12" text-anchor="end" fill="#4b5563">9283.9</text><line x1="76" y1="123.6" x2="972" y2="123.6" stroke="#e5e7eb"/><text x="66" y="127.6" font-size="12" text-anchor="end" fill="#4b5563">9089.9</text><line x1="76" y1="193.2" x2="972" y2="193.2" stroke="#e5e7eb"/><text x="66" y="197.2" font-size="12" text-anchor="end" fill="#4b5563">8895.9</text><line x1="76" y1="262.8" x2="972" y2="262.8" stroke="#e5e7eb"/><text x="66" y="266.8" font-size="12" text-anchor="end" fill="#4b5563">8701.9</text><line x1="76" y1="332.4" x2="972" y2="332.4" stroke="#e5e7eb"/><text x="66" y="336.4" font-size="12" text-anchor="end" fill="#4b5563">8507.9</text><line x1="76" y1="402.0" x2="972" y2="402.0" stroke="#e5e7eb"/><text x="66" y="406.0" font-size="12" text-anchor="end" fill="#4b5563">8313.9</text>
<line x1="76" y1="402" x2="972" y2="402" stroke="#9ca3af"/>
<line x1="76" y1="54" x2="76" y2="402" stroke="#9ca3af"/>
<path d="M76.0,244.5 L106.5,241.2 L116.7,261.7 L126.9,253.4 L137.1,250.9 L147.3,252.7 L177.8,235.9 L188.0,217.2 L198.2,214.3 L208.4,199.3 L218.5,183.1 L249.1,195.3 L259.3,215.8 L269.5,229.8 L279.6,208.2 L289.8,205.0 L330.5,175.6 L340.7,176.7 L350.9,178.8 L361.1,200.3 L391.6,235.5 L401.8,206.1 L412.0,177.0 L422.2,193.2 L432.4,266.4 L462.9,202.1 L473.1,204.6 L483.3,154.8 L493.5,148.7 L503.6,195.3 L534.2,182.4 L544.4,175.2 L554.5,152.6 L564.7,122.8 L574.9,127.9 L605.5,147.6 L615.6,146.2 L625.8,110.3 L636.0,89.1 L646.2,78.0 L676.7,83.0 L686.9,126.8 L697.1,191.4 L707.3,166.6 L717.5,197.1 L748.0,294.7 L758.2,249.1 L768.4,236.6 L778.5,276.8 L788.7,280.3 L819.3,290.0 L829.5,279.6 L839.6,267.8 L849.8,323.0 L860.0,335.6 L890.5,365.4 L900.7,365.4 L910.9,308.3 L921.1,312.6 L931.3,316.2 L961.8,339.2 L972.0,332.0" fill="none" stroke="#1d4ed8" stroke-width="2"/><path d="M76.0,257.5 L106.5,257.6 L116.7,265.1 L126.9,256.6 L137.1,255.9 L147.3,254.9 L177.8,241.5 L188.0,225.1 L198.2,218.5 L208.4,204.1 L218.5,191.7 L249.1,207.3 L259.3,237.1 L269.5,246.0 L279.6,211.0 L289.8,209.1 L330.5,177.1 L340.7,182.1 L350.9,168.4 L361.1,195.0 L391.6,208.9 L401.8,208.1 L412.0,176.2 L422.2,216.4 L432.4,258.2 L462.9,213.3 L473.1,200.6 L483.3,147.8 L493.5,148.6 L503.6,196.7 L534.2,171.9 L544.4,175.7 L554.5,142.2 L564.7,141.0 L574.9,139.9 L605.5,144.9 L615.6,142.6 L625.8,99.2 L636.0,91.0 L646.2,85.5 L676.7,106.6 L686.9,179.6 L697.1,186.7 L707.3,194.1 L717.5,257.0 L748.0,304.2 L758.2,256.4 L768.4,287.1 L778.5,276.5 L788.7,295.6 L819.3,297.3 L829.5,282.6 L839.6,316.4 L849.8,372.6 L860.0,355.8 L890.5,318.5 L900.7,378.0 L910.9,314.0 L921.1,343.8 L931.3,366.7 L961.8,330.5 L972.0,334.5" fill="none" stroke="#dc2626" stroke-width="2"/>
<line x1="76" y1="436" x2="104" y2="436" stroke="#1d4ed8" stroke-width="3"/><text x="112" y="440" font-size="13" fill="#111827">SPI back-adjusted close</text><line x1="286" y1="436" x2="314" y2="436" stroke="#dc2626" stroke-width="3"/><text x="322" y="440" font-size="13" fill="#111827">CFD mid close</text>
</svg>