<svg xmlns="http://www.w3.org/2000/svg" width="900" height="420" viewBox="0 0 900 420">
<rect width="100%" height="100%" fill="white"/>
<text x="450.0" y="28" font-size="20" text-anchor="middle" font-weight="700" fill="#111827">1分钟价差分布</text>
<line x1="72" y1="366" x2="872" y2="366" stroke="#9ca3af"/>
<line x1="72" y1="54" x2="72" y2="366" stroke="#9ca3af"/>
<rect x="73.0" y="329.6" width="24.7" height="36.4" fill="#2563eb" opacity="0.82"/><rect x="99.7" y="357.0" width="24.7" height="9.0" fill="#2563eb" opacity="0.82"/><rect x="126.3" y="352.1" width="24.7" height="13.9" fill="#2563eb" opacity="0.82"/><rect x="153.0" y="343.6" width="24.7" height="22.4" fill="#2563eb" opacity="0.82"/><rect x="179.7" y="330.3" width="24.7" height="35.7" fill="#2563eb" opacity="0.82"/><rect x="206.3" y="323.0" width="24.7" height="43.0" fill="#2563eb" opacity="0.82"/><rect x="233.0" y="311.7" width="24.7" height="54.3" fill="#2563eb" opacity="0.82"/><rect x="259.7" y="301.7" width="24.7" height="64.3" fill="#2563eb" opacity="0.82"/><rect x="286.3" y="291.4" width="24.7" height="74.6" fill="#2563eb" opacity="0.82"/><rect x="313.0" y="267.1" width="24.7" height="98.9" fill="#2563eb" opacity="0.82"/><rect x="339.7" y="221.9" width="24.7" height="144.1" fill="#2563eb" opacity="0.82"/><rect x="366.3" y="200.1" width="24.7" height="165.9" fill="#2563eb" opacity="0.82"/><rect x="393.0" y="154.0" width="24.7" height="212.0" fill="#2563eb" opacity="0.82"/><rect x="419.7" y="100.3" width="24.7" height="265.7" fill="#2563eb" opacity="0.82"/><rect x="446.3" y="54.0" width="24.7" height="312.0" fill="#2563eb" opacity="0.82"/><rect x="473.0" y="104.8" width="24.7" height="261.2" fill="#2563eb" opacity="0.82"/><rect x="499.7" y="177.2" width="24.7" height="188.8" fill="#2563eb" opacity="0.82"/><rect x="526.3" y="200.4" width="24.7" height="165.6" fill="#2563eb" opacity="0.82"/><rect x="553.0" y="232.4" width="24.7" height="133.6" fill="#2563eb" opacity="0.82"/><rect x="579.7" y="259.7" width="24.7" height="106.3" fill="#2563eb" opacity="0.82"/><rect x="606.3" y="274.0" width="24.7" height="92.0" fill="#2563eb" opacity="0.82"/><rect x="633.0" y="309.9" width="24.7" height="56.1" fill="#2563eb" opacity="0.82"/><rect x="659.7" y="306.0" width="24.7" height="60.0" fill="#2563eb" opacity="0.82"/><rect x="686.3" y="316.0" width="24.7" height="50.0" fill="#2563eb" opacity="0.82"/><rect x="713.0" y="334.7" width="24.7" height="31.3" fill="#2563eb" opacity="0.82"/><rect x="739.7" y="342.9" width="24.7" height="23.1" fill="#2563eb" opacity="0.82"/><rect x="766.3" y="347.7" width="24.7" height="18.3" fill="#2563eb" opacity="0.82"/><rect x="793.0" y="354.0" width="24.7" height="12.0" fill="#2563eb" opacity="0.82"/><rect x="819.7" y="358.2" width="24.7" height="7.8" fill="#2563eb" opacity="0.82"/><rect x="846.3" y="331.0" width="24.7" height="35.0" fill="#2563eb" opacity="0.82"/>
<text x="72.0" y="396" font-size="12" text-anchor="middle" fill="#4b5563">-132.1</text><text x="232.0" y="396" font-size="12" text-anchor="middle" fill="#4b5563">-69.9</text><text x="392.0" y="396" font-size="12" text-anchor="middle" fill="#4b5563">-7.7</text><text x="552.0" y="396" font-size="12" text-anchor="middle" fill="#4b5563">54.6</text><text x="712.0" y="396" font-size="12" text-anchor="middle" fill="#4b5563">116.8</text><text x="872.0" y="396" font-size="12" text-anchor="middle" fill="#4b5563">179.0</text>
<text x="450.0" y="414" font-size="13" text-anchor="middle" fill="#374151">SPI close - CFD mid close</text>
</svg>