<svg xmlns="http://www.w3.org/2000/svg" width="1000" height="460" viewBox="0 0 1000 460">
<rect width="100%" height="100%" fill="white"/>
<text x="500.0" y="28" font-size="20" text-anchor="middle" font-weight="700" fill="#111827">1分钟收盘价差抽样：SPI - CFD</text>
<text x="22" y="230.0" font-size="13" text-anchor="middle" fill="#374151" transform="rotate(-90 22 230.0)">点数</text>
<line x1="76" y1="54.0" x2="972" y2="54.0" stroke="#e5e7eb"/><text x="66" y="58.0" font-size="12" text-anchor="end" fill="#4b5563">289.6</text><line x1="76" y1="123.6" x2="972" y2="123.6" stroke="#e5e7eb"/><text x="66" y="127.6" font-size="12" text-anchor="end" fill="#4b5563">180.2</text><line x1="76" y1="193.2" x2="972" y2="193.2" stroke="#e5e7eb"/><text x="66" y="197.2" font-size="12" text-anchor="end" fill="#4b5563">70.8</text><line x1="76" y1="262.8" x2="972" y2="262.8" stroke="#e5e7eb"/><text x="66" y="266.8" font-size="12" text-anchor="end" fill="#4b5563">-38.5</text><line x1="76" y1="332.4" x2="972" y2="332.4" stroke="#e5e7eb"/><text x="66" y="336.4" font-size="12" text-anchor="end" fill="#4b5563">-147.9</text><line x1="76" y1="402.0" x2="972" y2="402.0" stroke="#e5e7eb"/><text x="66" y="406.0" font-size="12" text-anchor="end" fill="#4b5563">-257.3</text>
<line x1="76" y1="402" x2="972" y2="402" stroke="#9ca3af"/>
<line x1="76" y1="54" x2="76" y2="402" stroke="#9ca3af"/>
<path d="M76.0,199.2 L76.4,218.9 L76.7,218.9 L77.1,215.8 L77.5,226.0 L77.9,214.4 L78.3,236.4 L78.7,230.6 L79.1,233.9 L79.7,238.7 L80.1,228.5 L80.5,224.5 L112.0,201.6 L112.4,235.2 L112.8,250.4 L113.2,243.9 L113.6,257.0 L113.9,266.8 L114.3,269.3 L115.0,276.9 L115.4,271.1 L115.8,283.1 L116.2,276.1 L116.7,262.7 L117.0,227.7 L117.4,225.1 L117.8,230.8 L118.2,225.1 L118.5,218.4 L118.9,212.7 L119.3,206.4 L119.7,205.8 L120.2,201.1 L120.6,189.4 L120.9,192.1 L122.1,210.2 L125.1,238.0 L125.6,241.0 L126.0,238.0 L126.6,231.1 L127.0,226.1 L127.4,228.0 L127.8,218.0 L128.1,223.8 L128.5,225.7 L128.9,240.9 L129.3,224.0 L129.7,218.4 L130.1,223.3 L130.5,227.8 L130.9,228.3 L131.3,232.8 L132.5,235.0 L132.9,222.6 L133.3,214.9 L133.6,206.5 L134.0,216.1 L134.4,222.7 L134.8,209.1 L135.5,218.5 L135.8,209.6 L136.2,209.8 L136.7,209.1 L137.1,204.8 L137.5,220.6 L137.8,212.3 L138.2,222.9 L138.6,218.7 L139.0,203.2 L139.4,207.2 L139.7,199.9 L140.1,195.7 L140.5,204.2 L140.9,213.5 L141.3,206.3 L142.5,217.5 L142.9,214.5 L143.3,214.0 L143.7,231.8 L144.1,235.7 L144.4,249.1 L144.8,249.6 L145.5,242.4 L145.9,249.5 L146.3,250.5 L146.7,250.9 L147.1,233.1 L147.5,233.7 L147.9,238.1 L148.2,233.1 L148.6,223.5 L149.1,222.2 L149.5,207.1 L149.9,200.6 L150.3,204.7 L150.8,209.8 L151.1,205.1 L177.2,219.2 L177.6,246.1 L178.0,233.5 L178.3,218.6 L178.7,222.9 L179.1,226.3 L179.5,212.1 L179.9,207.1 L180.2,207.9 L180.7,204.7 L181.1,208.6 L181.5,198.7 L182.7,206.9 L183.1,192.7 L186.2,214.2 L186.6,215.9 L187.0,212.8 L187.4,217.5 L187.8,231.8 L188.2,251.8 L188.5,253.7 L188.9,251.8 L189.3,242.3 L189.7,237.8 L190.1,226.6 L190.5,224.1 L190.9,221.3 L191.3,225.0 L191.7,225.7 L192.9,210.3 L193.4,230.6 L193.8,234.8 L194.2,234.6 L194.6,239.1 L195.0,238.8 L195.3,237.0 L196.0,223.5 L196.4,220.3 L196.8,220.0 L197.2,220.1 L197.6,237.8 L198.0,222.4 L198.4,217.2 L198.8,206.5 L199.1,206.0 L199.5,214.4 L199.9,221.9 L200.3,223.6 L200.6,232.3 L201.1,231.0 L201.5,220.8 L202.0,215.5 L203.2,219.8 L206.2,205.1 L206.6,210.7 L207.0,222.1 L207.4,220.6 L207.8,221.0 L208.1,226.3 L208.5,227.5 L208.9,218.9 L209.3,220.9 L209.6,213.3 L210.0,223.7 L210.4,228.3 L210.8,233.9 L211.2,224.9 L211.6,221.8 L212.1,228.7 L213.3,223.5 L213.7,215.7 L214.2,213.5 L214.5,203.8 L214.9,207.3 L215.3,201.4 L215.7,199.8 L216.4,204.4 L216.8,199.1 L217.1,200.5 L217.7,195.9 L218.0,204.9 L218.4,208.8 L218.8,214.9 L219.2,230.8 L219.6,229.6 L219.9,225.2 L220.3,234.8 L220.7,225.4 L221.1,224.4 L221.5,224.2 L221.9,225.0 L248.0,244.2 L248.4,258.1 L248.8,244.4 L249.1,241.0 L249.5,239.5 L249.9,240.9 L250.3,245.7 L250.8,254.3 L251.2,250.2 L251.6,243.6 L251.9,248.5 L252.3,250.5 L252.7,238.5 L253.9,245.7 L254.3,254.9 L254.8,248.1 L255.2,243.7 L255.5,248.2 L256.0,253.6 L258.2,278.1 L258.5,270.7 L258.9,255.1 L259.3,264.7 L259.6,256.3 L260.0,258.1 L260.4,245.1 L260.8,241.6 L261.2,241.1 L261.6,241.8 L261.9,245.7 L262.3,237.3 L262.7,226.6 L263.8,219.3 L266.8,225.7 L267.2,219.8 L267.6,231.8 L268.0,230.8 L268.5,241.3 L268.8,239.4 L269.2,255.3 L269.6,253.9 L270.0,253.7 L270.3,228.8 L270.7,220.5 L271.1,223.7 L271.5,239.9 L271.9,225.6 L272.3,199.7 L272.7,198.6 L273.9,175.2 L274.2,166.8 L274.6,171.4 L275.0,202.3 L275.4,214.3 L275.8,196.7 L276.1,184.6 L276.5,193.7 L277.2,233.8 L277.5,228.5 L277.9,221.7 L278.4,213.3 L278.8,224.2 L279.1,228.7 L279.5,229.5 L279.9,225.3 L280.3,225.0 L280.6,232.0 L281.0,225.4 L281.4,227.3 L281.8,216.7 L282.2,221.2 L282.6,235.6 L283.0,240.8 L284.2,239.9 L284.6,231.4 L285.0,223.1 L285.4,215.1 L285.7,226.9 L286.1,226.1 L286.5,231.5 L287.2,224.5 L287.5,219.9 L287.9,223.8 L288.3,221.8 L288.7,226.3 L289.1,228.2 L289.5,237.1 L289.8,243.9 L290.2,240.8 L290.6,243.4 L291.0,226.8 L291.4,221.8 L291.8,226.2 L292.2,229.3 L292.6,219.6 L293.0,222.7 L319.1,191.9 L319.5,190.7 L319.8,185.5 L320.2,189.9 L320.6,186.4 L320.9,178.0 L321.3,176.3 L321.7,181.7 L322.1,192.4 L322.5,198.4 L322.9,222.7 L323.3,222.3 L324.4,232.2 L327.4,223.3 L327.8,213.7 L328.3,202.1 L328.6,204.5 L329.2,222.0 L329.5,238.5 L329.9,236.6 L330.3,236.0 L330.7,229.0 L331.1,220.3 L331.4,224.3 L331.8,213.3 L332.2,221.5 L332.7,214.0 L333.1,213.1 L333.6,214.2 L334.7,217.3 L335.1,241.1 L335.6,238.1 L335.9,259.7 L336.3,263.2 L336.7,256.2 L337.1,250.7 L337.7,253.0 L338.1,256.3 L338.5,244.8 L338.9,254.1 L339.3,251.7 L339.7,240.4 L340.1,237.8 L340.5,222.6 L340.8,230.7 L341.2,227.1 L341.6,227.5 L342.0,237.9 L342.4,242.9 L342.8,249.7 L343.2,250.3 L343.6,236.4 L344.8,258.1 L347.7,239.4 L348.1,243.6 L348.5,227.7 L348.9,225.2 L349.3,211.8 L349.6,199.5 L350.0,175.7 L350.4,177.3 L350.8,175.3 L351.1,178.7 L351.5,210.4 L351.9,239.9 L352.3,230.1 L352.7,228.9 L353.1,226.3 L353.5,235.4 L353.8,230.7 L355.0,231.7 L355.4,245.7 L355.8,263.9 L356.2,260.3 L356.6,267.6 L356.9,277.3 L357.3,270.9 L358.0,288.7 L358.3,282.3 L358.7,291.8 L359.1,295.3 L359.5,281.2 L359.9,278.6 L360.2,260.2 L360.6,252.5 L361.0,235.3 L361.3,220.7 L361.7,241.1 L362.1,256.9 L362.5,262.3 L362.8,276.6 L363.2,263.2 L363.6,268.9 L364.0,265.7 L390.0,242.9 L390.4,223.9 L390.7,194.0 L391.1,187.7 L391.5,176.9 L391.8,167.8 L392.2,176.8 L392.6,172.7 L393.0,158.1 L393.3,172.2 L393.7,190.0 L394.1,201.1 L395.2,223.1 L395.6,205.5 L396.0,213.8 L396.3,236.4 L396.7,231.8 L397.1,232.5 L397.5,246.0 L397.8,240.8 L398.5,227.7 L398.9,231.7 L399.2,239.7 L399.7,237.6 L400.1,248.8 L400.4,254.5 L400.8,247.2 L401.2,248.8 L401.6,255.8 L401.9,227.3 L402.3,244.4 L402.7,245.7 L403.1,275.4 L403.5,285.6 L403.8,283.9 L404.2,278.0 L405.4,249.5 L408.3,132.7 L408.7,148.5 L409.1,163.3 L409.5,167.0 L409.9,178.9 L410.3,162.4 L410.7,172.0 L411.0,182.1 L411.4,199.7 L411.8,215.4 L412.2,235.7 L412.6,239.2 L412.9,245.1 L413.3,270.2 L413.7,268.1 L414.1,253.0 L414.5,240.2 L415.6,264.8 L416.0,259.0 L416.4,253.9 L416.8,258.0 L417.1,270.1 L417.5,251.7 L417.9,231.0 L418.5,233.9 L418.9,251.4 L419.3,244.7 L419.6,266.6 L420.0,262.6 L420.4,261.2 L420.8,268.8 L421.1,277.2 L421.5,282.1 L421.9,281.3 L422.3,278.5 L422.6,293.1 L423.0,270.1 L423.4,277.3 L423.8,285.7 L424.1,275.6 L424.5,283.1 L425.7,303.9 L426.0,292.2 L426.4,297.6 L426.8,300.7 L427.2,292.2 L427.5,318.2 L427.9,330.3 L428.3,319.4 L428.9,311.8 L429.3,297.0 L429.7,298.2 L430.1,277.7 L430.4,273.6 L430.8,250.4 L431.2,220.5 L431.5,246.9 L431.9,232.9 L432.3,208.9 L432.7,184.6 L433.0,201.6 L433.4,209.3 L433.8,199.6 L434.2,184.6 L434.5,191.6 L460.5,199.5 L460.9,219.3 L461.3,237.0 L461.7,250.4 L462.0,260.5 L462.4,263.1 L462.8,240.9 L463.2,219.4 L463.5,222.1 L463.9,227.8 L464.3,223.6 L464.7,219.5 L465.0,216.5 L466.2,196.2 L469.2,261.9 L469.6,260.9 L470.0,263.6 L470.3,258.3 L470.7,260.9 L471.1,246.7 L471.5,243.5 L471.9,254.4 L472.2,243.0 L472.6,233.7 L473.0,225.8 L473.4,235.0 L473.7,218.7 L474.2,224.6 L474.5,227.5 L474.9,223.2 L475.3,233.9 L476.4,215.8 L476.8,184.6 L477.2,189.7 L477.6,183.6 L478.0,166.6 L478.3,179.7 L478.7,172.7 L479.4,173.1 L479.8,178.1 L480.1,173.9 L480.5,171.8 L481.0,179.0 L481.3,199.3 L481.7,215.2 L482.1,219.1 L482.5,214.4 L482.9,231.8 L483.2,258.6 L483.6,241.1 L484.0,235.6 L484.4,240.2 L484.8,229.1 L485.2,235.0 L486.3,227.5 L489.3,227.5 L489.7,226.8 L490.0,223.4 L490.4,231.3 L490.9,239.6 L491.3,247.3 L491.7,262.0 L492.1,281.0 L492.4,271.4 L492.8,260.0 L493.2,251.1 L493.6,291.7 L494.0,299.1 L494.4,301.2 L494.8,291.9 L495.1,278.6 L496.3,279.6 L496.7,289.5 L497.2,302.0 L497.5,308.3 L497.9,301.3 L498.3,252.6 L498.7,266.9 L499.0,263.7 L499.7,289.1 L500.1,271.7 L500.4,266.7 L500.8,272.4 L501.2,278.9 L501.6,275.2 L501.9,261.9 L502.3,256.8 L502.7,250.0 L503.1,251.1 L503.4,235.0 L503.8,210.5 L504.2,200.8 L504.6,216.4 L505.0,206.4 L505.3,218.7 L531.3,224.7 L531.7,229.5 L532.1,215.1 L532.5,219.1 L532.8,225.4 L533.3,233.2 L533.6,229.1 L534.0,229.6 L534.4,231.7 L534.8,236.0 L535.2,238.8 L535.6,245.8 L536.0,247.7 L537.1,240.5 L537.5,223.8 L537.9,220.7 L538.3,230.3 L538.7,229.7 L539.1,236.1 L539.9,236.2 L541.5,236.7 L541.9,247.1 L542.2,243.6 L542.6,257.0 L543.0,245.8 L543.4,246.2 L543.7,242.4 L544.1,216.6 L544.5,215.6 L544.9,223.3 L545.3,206.0 L545.6,221.5 L546.0,226.4 L547.2,211.9 L550.1,227.8 L550.5,222.0 L550.9,218.8 L551.3,211.9 L551.8,202.8 L552.1,213.1 L552.5,204.2 L552.9,200.2 L553.3,206.5 L553.7,202.1 L554.1,193.1 L554.4,198.6 L554.8,197.8 L555.3,201.6 L555.7,222.8 L556.0,232.4 L557.2,216.0 L557.6,204.6 L558.0,194.7 L558.4,214.1 L558.7,222.9 L559.1,226.4 L559.5,230.1 L560.1,208.9 L560.5,204.2 L560.9,215.0 L561.3,227.6 L561.7,262.8 L562.1,262.5 L562.5,275.7 L562.9,272.8 L563.2,282.9 L563.6,271.0 L564.0,262.4 L564.4,253.7 L564.8,267.1 L565.2,268.8 L565.6,251.1 L565.9,249.3 L566.3,236.5 L567.5,222.5 L567.9,215.2 L568.2,209.6 L568.6,218.3 L569.0,222.9 L569.4,214.9 L569.7,216.1 L570.4,215.1 L570.8,216.2 L571.1,222.8 L571.6,217.4 L572.0,226.6 L572.4,235.5 L572.8,248.3 L573.1,253.5 L573.5,255.9 L574.0,250.4 L574.4,235.1 L574.7,238.8 L575.1,246.7 L575.5,234.6 L575.9,231.1 L576.3,226.4 L602.4,256.8 L602.7,237.3 L603.1,223.6 L603.5,233.0 L603.8,221.4 L604.2,194.8 L604.6,218.4 L605.0,224.1 L605.3,227.0 L605.7,220.3 L606.1,223.4 L606.5,234.8 L607.7,232.9 L608.1,231.7 L611.0,246.0 L611.4,248.5 L611.8,254.2 L612.2,244.1 L612.6,240.2 L613.0,220.8 L613.4,205.8 L613.7,203.3 L614.1,214.1 L614.5,208.4 L614.9,200.6 L615.3,195.8 L615.7,193.0 L616.1,182.3 L616.5,184.3 L616.9,187.9 L618.0,200.3 L618.4,198.8 L618.8,191.5 L619.1,189.7 L619.5,202.0 L619.9,209.4 L620.3,210.5 L620.9,204.8 L621.3,211.8 L621.7,200.4 L622.2,205.3 L622.7,205.9 L623.0,202.6 L623.4,205.3 L623.8,206.5 L624.2,194.6 L624.6,195.1 L624.9,197.9 L625.3,192.1 L625.7,189.6 L626.1,193.2 L626.5,200.5 L626.9,202.9 L628.1,225.8 L631.1,225.3 L631.5,227.8 L631.8,232.0 L632.2,238.9 L632.6,234.9 L633.0,223.9 L633.4,231.1 L633.7,234.5 L634.1,230.7 L634.5,220.4 L634.9,241.5 L635.3,230.3 L635.7,244.3 L636.1,246.8 L636.5,230.5 L636.9,225.1 L638.0,233.5 L638.5,233.7 L638.9,233.1 L639.3,244.3 L639.6,235.7 L640.0,225.0 L640.4,225.8 L640.7,206.3 L641.4,220.8 L641.8,212.4 L642.1,209.5 L642.5,205.9 L642.9,211.0 L643.3,220.8 L643.6,220.5 L644.0,211.1 L644.4,221.6 L644.8,242.5 L645.2,228.9 L645.5,242.7 L645.9,242.3 L646.3,242.8 L646.7,241.8 L647.1,246.5 L673.4,222.2 L673.7,227.3 L674.1,232.4 L674.6,254.8 L675.0,248.8 L675.4,254.6 L675.8,257.0 L676.2,238.1 L676.5,230.6 L676.9,221.9 L677.3,212.7 L677.7,226.4 L678.8,224.2 L679.2,238.6 L679.5,237.8 L679.9,283.8 L680.3,271.5 L680.7,295.9 L681.0,291.5 L681.7,309.9 L682.1,316.8 L682.4,335.8 L682.8,358.1 L683.3,378.0 L683.7,356.4 L684.0,350.7 L684.4,320.8 L684.8,337.3 L685.1,363.2 L685.5,352.3 L685.9,323.3 L686.3,290.4 L686.6,280.7 L687.0,267.5 L687.4,227.1 L687.8,225.6 L688.9,225.2 L691.9,272.9 L692.2,272.4 L692.6,254.6 L693.1,242.7 L693.5,223.8 L693.8,214.4 L694.2,206.4 L694.6,193.8 L694.9,188.3 L695.3,193.3 L695.7,192.7 L696.1,169.1 L696.4,160.3 L696.8,161.8 L697.2,168.5 L697.6,163.7 L698.7,190.3 L699.1,184.1 L699.4,211.6 L699.8,211.4 L700.2,222.8 L700.6,203.5 L700.9,208.2 L701.3,202.7 L702.0,236.4 L702.3,224.7 L702.7,250.6 L703.1,217.2 L703.5,224.2 L703.9,217.9 L704.2,228.1 L704.6,217.6 L705.0,238.8 L705.4,251.2 L705.7,271.9 L706.1,284.8 L706.5,268.6 L706.9,287.5 L707.2,289.4 L707.6,293.1 L708.0,285.9 L709.1,262.1 L709.5,248.8 L709.9,233.8 L710.2,224.7 L710.6,202.8 L711.0,201.2 L711.4,173.7 L712.0,158.5 L712.4,180.2 L712.7,193.1 L713.1,206.6 L713.5,236.7 L713.9,241.5 L714.3,258.4 L714.7,268.8 L715.0,283.8 L715.4,299.9 L715.8,292.5 L716.2,303.1 L716.5,295.8 L716.9,290.4 L717.3,282.2 L717.7,279.6 L718.0,255.6 L743.7,219.1 L744.1,203.1 L744.5,164.2 L744.8,136.2 L745.2,135.5 L745.6,172.0 L745.9,149.7 L746.3,143.2 L746.7,117.6 L747.1,145.2 L747.4,131.7 L747.8,103.8 L749.4,141.4 L749.7,125.3 L752.7,237.9 L753.1,223.5 L753.5,216.8 L753.9,216.5 L754.3,219.5 L754.6,201.2 L755.0,205.8 L755.4,197.3 L755.8,201.9 L756.1,140.7 L756.5,152.9 L756.9,159.6 L757.2,155.8 L757.6,192.2 L758.0,217.7 L759.6,196.0 L759.9,202.3 L760.3,197.2 L760.7,232.2 L761.0,235.7 L761.4,220.2 L761.8,239.5 L762.2,214.0 L762.8,216.5 L763.2,234.4 L763.6,257.9 L764.0,264.9 L764.4,226.4 L764.8,255.7 L765.1,252.1 L765.5,254.2 L765.9,248.9 L766.3,245.7 L766.6,270.0 L767.0,245.3 L767.4,243.4 L767.8,215.4 L768.1,197.9 L769.7,207.4 L772.7,232.6 L773.0,224.7 L773.4,208.2 L773.9,214.9 L774.3,191.7 L774.7,169.9 L775.1,168.6 L775.4,178.5 L775.8,179.7 L776.2,190.3 L776.5,224.0 L776.9,223.0 L777.3,225.6 L777.7,227.5 L778.0,253.7 L778.4,254.7 L780.0,241.5 L780.3,219.1 L780.7,190.6 L781.1,169.9 L781.5,175.0 L781.8,192.1 L782.2,193.2 L782.9,210.7 L783.2,230.1 L783.6,252.9 L784.1,233.9 L784.4,220.5 L784.8,217.1 L785.2,227.2 L785.5,223.8 L785.9,204.2 L786.3,224.5 L786.7,235.9 L787.0,239.0 L787.4,229.4 L787.8,210.0 L788.2,181.6 L788.5,210.7 L814.6,224.9 L815.0,215.9 L815.4,223.9 L815.8,188.2 L816.1,185.8 L816.5,157.9 L816.9,176.9 L817.2,187.8 L817.6,190.2 L818.0,188.4 L818.4,165.2 L818.8,165.0 L820.3,202.5 L820.7,213.7 L821.1,255.9 L821.4,236.0 L821.8,233.2 L822.2,213.0 L822.6,210.9 L823.2,245.3 L823.6,251.8 L824.0,228.9 L824.4,224.5 L824.8,205.2 L825.2,212.1 L825.5,188.7 L825.9,170.5 L826.3,158.8 L826.7,167.8 L827.0,177.3 L827.4,194.1 L827.8,184.3 L828.1,170.8 L828.5,184.2 L828.9,204.7 L830.5,218.3 L830.8,231.7 L831.2,224.1 L831.6,224.8 L832.0,209.3 L832.3,199.8 L832.7,192.8 L833.4,190.4 L833.7,182.5 L834.1,186.4 L834.7,186.0 L835.0,188.6 L835.4,182.4 L835.8,210.0 L836.2,250.9 L836.5,248.6 L836.9,277.7 L837.3,268.9 L837.7,261.6 L838.0,276.2 L838.4,271.7 L838.8,290.0 L840.4,283.8 L840.8,250.6 L843.8,222.8 L844.1,225.3 L844.5,249.8 L844.9,244.5 L845.3,244.6 L845.6,256.3 L846.0,268.1 L846.4,284.5 L846.8,255.5 L847.1,250.3 L847.5,250.7 L847.9,235.8 L848.3,231.7 L848.6,230.4 L849.0,188.9 L850.6,167.1 L850.9,159.6 L851.3,176.9 L851.7,172.5 L852.1,170.8 L852.4,190.2 L852.8,196.3 L853.2,208.7 L853.8,239.4 L854.2,224.3 L854.6,217.2 L855.0,239.3 L855.4,250.9 L855.8,219.7 L856.1,205.4 L856.5,242.0 L856.9,256.7 L857.3,287.5 L857.6,274.1 L858.0,293.1 L858.4,293.9 L858.7,309.9 L859.1,348.6 L885.2,173.4 L885.6,191.7 L886.0,88.9 L886.3,91.0 L886.7,81.2 L887.1,112.3 L887.5,101.5 L887.8,89.0 L888.2,122.9 L888.6,114.3 L888.9,99.7 L889.3,83.8 L889.7,78.0 L891.3,239.0 L891.6,258.3 L892.0,306.8 L892.4,321.6 L892.7,281.1 L893.1,259.6 L893.5,291.2 L894.1,273.9 L894.5,252.9 L894.9,266.3 L895.4,286.7 L895.8,238.0 L896.1,223.5 L896.5,201.9 L896.9,211.4 L897.2,229.9 L897.6,192.4 L898.0,167.2 L898.4,154.1 L898.7,198.2 L899.1,222.1 L899.5,209.1 L901.0,160.1 L901.4,139.5 L904.4,151.0 L904.8,159.9 L905.1,129.2 L905.5,147.2 L905.9,160.0 L906.3,177.0 L906.6,179.6 L907.0,202.3 L907.4,204.9 L907.7,181.2 L908.1,201.9 L908.5,189.4 L908.9,183.7 L909.2,186.4 L909.6,218.2 L911.2,235.4 L911.5,227.3 L911.9,221.6 L912.3,222.8 L912.7,224.8 L913.0,223.9 L913.4,231.5 L913.8,234.5 L914.4,223.8 L914.8,233.4 L915.2,238.1 L915.6,243.2 L916.0,238.8 L916.3,242.2 L916.7,264.6 L917.1,245.8 L917.5,213.1 L917.8,215.6 L918.2,236.6 L918.6,239.9 L918.9,243.7 L919.3,255.0 L919.7,249.5 L920.1,258.2 L921.6,182.1 L922.0,216.7 L922.4,232.9 L923.4,190.6 L923.7,172.6 L924.4,176.7 L924.8,169.6 L925.1,181.6 L925.5,217.6 L925.9,226.5 L926.3,274.4 L926.6,247.8 L927.0,254.8 L927.4,262.0 L927.8,252.1 L928.1,245.2 L928.5,252.7 L928.9,244.6 L929.3,248.3 L929.6,241.8 L930.0,219.6 L956.1,171.7 L956.5,176.6 L956.8,141.1 L957.2,143.0 L957.6,147.2 L958.0,167.3 L958.3,181.6 L958.7,161.2 L959.1,178.8 L959.5,200.5 L959.8,210.2 L960.2,240.1 L961.8,238.4 L962.1,255.9 L965.1,197.8 L965.5,185.6 L966.0,184.5 L966.3,187.4 L966.7,184.1 L967.1,156.9 L967.5,217.3 L967.8,226.9 L968.2,213.4 L968.6,214.0 L968.9,198.5 L969.3,163.1 L969.7,150.1 L970.1,155.5 L970.4,158.0 L972.0,144.7" fill="none" stroke="#059669" stroke-width="2"/>
<line x1="76" y1="436" x2="104" y2="436" stroke="#059669" stroke-width="3"/><text x="112" y="440" font-size="13" fill="#111827">minute diff sampled</text>
</svg>